<?xml version="1.0" standalone="no"?>
<!DOCTYPE svg PUBLIC "-//W3C//DTD SVG 20010904//EN"
 "http://www.w3.org/TR/2001/REC-SVG-20010904/DTD/svg10.dtd">
<svg version="1.0" xmlns="http://www.w3.org/2000/svg"
 width="320.000000pt" height="320.000000pt" viewBox="0 0 320.000000 320.000000"
 preserveAspectRatio="xMidYMid meet">
<metadata>
Created by potrace 1.11, written by Peter Selinger 2001-2013
</metadata>
<g transform="translate(0.000000,320.000000) scale(0.100000,-0.100000)"
fill="#000000" stroke="none">
<path d="M0 2400 l0 -800 169 0 168 0 6 90 c41 578 460 1045 1036 1154 119 23
334 21 458 -3 390 -77 715 -323 892 -677 75 -149 131 -364 131 -501 l0 -53
170 0 170 0 0 795 0 795 -1600 0 -1600 0 0 -800z"/>
<path d="M1490 2715 c-8 -2 -49 -9 -90 -15 -410 -67 -761 -389 -878 -807 -25
-91 -27 -111 -27 -288 0 -167 3 -200 23 -273 90 -328 309 -594 605 -732 670
-314 1446 92 1574 825 22 129 13 327 -21 458 -51 199 -156 376 -309 524 -202
196 -450 300 -732 308 -71 2 -137 2 -145 0z m-78 -392 c17 -15 18 -51 18 -718
0 -591 -2 -704 -14 -721 -14 -18 -27 -19 -268 -16 -213 3 -256 6 -270 19 -17
15 -18 62 -18 716 0 638 1 702 17 719 15 17 37 18 266 18 219 0 253 -2 269
-17z m910 0 c16 -15 18 -36 18 -238 0 -175 -3 -225 -14 -241 -14 -18 -27 -19
-313 -16 -259 3 -300 6 -310 20 -10 12 -13 75 -13 236 0 190 2 222 17 238 15
17 38 18 306 18 256 0 293 -2 309 -17z m-4 -779 c22 -15 22 -17 22 -311 0
-262 -2 -299 -17 -315 -15 -17 -38 -18 -306 -18 -256 0 -293 2 -309 17 -17 15
-18 38 -18 310 0 280 1 294 20 313 19 19 33 20 303 20 240 0 286 -2 305 -16z"/>
</g>
</svg>
